<svg width="24" height="24" viewBox="0 0 24 24" fill="none" xmlns="http://www.w3.org/2000/svg">
<g id="&#240;&#159;&#154;&#169; &#236;&#132;&#184;&#235;&#170;&#168; &#234;&#185;&#131;&#235;&#176;&#156;" opacity="0.3" clip-path="url(#clip0_168_2675)">
<g id="Group">
<path id="Vector" d="M4.73096 3.79346V18.2133C10.545 18.3915 16.3596 10.3665 22.1736 11.7465C16.3596 6.66626 10.545 10.2843 4.73096 3.79346Z" fill="#E32939"/>
<g id="Group_2">
<path id="Vector_2" d="M4.22646 22.1028C3.89466 22.1028 3.62646 21.8346 3.62646 21.5028V3.69717C3.62646 3.36537 3.89466 3.09717 4.22646 3.09717C4.55826 3.09717 4.82646 3.36537 4.82646 3.69717V21.5028C4.82646 21.8346 4.55826 22.1028 4.22646 22.1028Z" fill="#333D4B"/>
<path id="Vector_3" d="M4.22588 4.89707C4.88862 4.89707 5.42588 4.35981 5.42588 3.69707C5.42588 3.03433 4.88862 2.49707 4.22588 2.49707C3.56314 2.49707 3.02588 3.03433 3.02588 3.69707C3.02588 4.35981 3.56314 4.89707 4.22588 4.89707Z" fill="#333D4B"/>
</g>
</g>
</g>
<defs>
<clipPath id="clip0_168_2675">
<rect width="24" height="24" fill="white"/>
</clipPath>
</defs>
</svg>
