<svg width="36" height="36" viewBox="0 0 36 36" fill="none" xmlns="http://www.w3.org/2000/svg">
<g id="Frame 1000003564" clip-path="url(#clip0_529_3160)">
<g id="Group 3">
<path id="Rectangle 926" d="M6.29525 9.44728C6.67527 8.25654 7.7817 7.44824 9.03161 7.44824H14.6154C16.0742 7.44824 17.1112 8.86773 16.6676 10.2575L11.269 27.1733C10.8889 28.3641 9.7825 29.1724 8.53259 29.1724H3.93178C1.98671 29.1724 0.604039 27.2797 1.19542 25.4267L6.29525 9.44728Z" fill="black"/>
<path id="Rectangle 927" d="M18.8905 9.44727C19.2705 8.25653 20.3769 7.44824 21.6268 7.44824H32.1209C34.066 7.44824 35.4486 9.3409 34.8572 11.1939L29.7574 27.1733C29.3774 28.3641 28.271 29.1724 27.0211 29.1724H15.544C14.0852 29.1724 13.0482 27.7529 13.4918 26.3631L18.8905 9.44727Z" fill="black"/>
</g>
</g>
<defs>
<clipPath id="clip0_529_3160">
<rect width="36" height="36" fill="white"/>
</clipPath>
</defs>
</svg>
