<svg width="20" height="20" viewBox="0 0 20 20" fill="none" xmlns="http://www.w3.org/2000/svg">
<g id="Icon / Interaction / plus-square-filled">
<path id="Subtract" fill-rule="evenodd" clip-rule="evenodd" d="M6.47325 1.875H13.5268C14.2041 1.87499 14.7505 1.87499 15.1929 1.91114C15.6484 1.94836 16.0485 2.02699 16.4187 2.21561C17.0067 2.51521 17.4848 2.99327 17.7844 3.58128C17.973 3.95146 18.0516 4.35158 18.0889 4.80711C18.125 5.24953 18.125 5.79587 18.125 6.47323V13.5268C18.125 14.2041 18.125 14.7505 18.0889 15.1929C18.0516 15.6484 17.973 16.0485 17.7844 16.4187C17.4848 17.0067 17.0067 17.4848 16.4187 17.7844C16.0485 17.973 15.6484 18.0516 15.1929 18.0889C14.7505 18.125 14.2041 18.125 13.5268 18.125H6.47323C5.79587 18.125 5.24953 18.125 4.80711 18.0889C4.35158 18.0516 3.95146 17.973 3.58128 17.7844C2.99327 17.4848 2.51521 17.0067 2.21561 16.4187C2.02699 16.0485 1.94836 15.6484 1.91114 15.1929C1.87499 14.7505 1.87499 14.2041 1.875 13.5268V6.47325C1.87499 5.79589 1.87499 5.24953 1.91114 4.80711C1.94836 4.35158 2.02699 3.95146 2.21561 3.58128C2.51521 2.99327 2.99327 2.51521 3.58128 2.21561C3.95146 2.02699 4.35158 1.94836 4.80711 1.91114C5.24953 1.87499 5.79589 1.87499 6.47325 1.875ZM10.625 6.66667C10.625 6.32149 10.3452 6.04167 10 6.04167C9.65482 6.04167 9.375 6.32149 9.375 6.66667V9.375H6.66667C6.32149 9.375 6.04167 9.65482 6.04167 10C6.04167 10.3452 6.32149 10.625 6.66667 10.625H9.375V13.3333C9.375 13.6785 9.65482 13.9583 10 13.9583C10.3452 13.9583 10.625 13.6785 10.625 13.3333V10.625H13.3333C13.6785 10.625 13.9583 10.3452 13.9583 10C13.9583 9.65482 13.6785 9.375 13.3333 9.375H10.625V6.66667Z" fill="white"/>
</g>
</svg>
