<svg width="24" height="24" viewBox="0 0 24 24" fill="none" xmlns="http://www.w3.org/2000/svg">
<g id="&#240;&#159;&#147;&#150; &#237;&#142;&#188;&#236;&#179;&#144;&#236;&#167;&#132; &#236;&#177;&#133;" clip-path="url(#clip0_168_2667)">
<g id="Group">
<path id="Vector" d="M12.717 20.6699C12.9888 20.6699 13.2432 20.5589 13.4514 20.3843C14.3124 19.6625 15.4038 19.2629 16.536 19.2629H21.3096C21.939 19.2629 22.4496 18.7523 22.4496 18.1229V5.60986H1.5498V18.1229C1.5498 18.7523 2.0604 19.2629 2.6898 19.2629H7.4634C8.5956 19.2629 9.687 19.6631 10.548 20.3843C10.7562 20.5589 11.0106 20.6699 11.2824 20.6699H12.717Z" fill="#007FF2"/>
<path id="Vector_2" d="M12 19.5301C12.9006 18.6295 14.1222 18.1231 15.396 18.1231H21.3096C21.939 18.1231 22.4496 17.6125 22.4496 16.9831V4.47008C22.4496 3.84068 21.939 3.33008 21.3096 3.33008H15.396C14.1222 3.33008 12.9006 3.83588 12 4.73708" fill="#C0C7D1"/>
<path id="Vector_3" d="M12 19.5301C11.0994 18.6295 9.8778 18.1231 8.604 18.1231H2.6898C2.0604 18.1231 1.5498 17.6125 1.5498 16.9831V4.47008C1.5498 3.84068 2.0604 3.33008 2.6898 3.33008H8.6034C9.8772 3.33008 11.0988 3.83588 11.9994 4.73708" fill="#E5E8EB"/>
</g>
</g>
<defs>
<clipPath id="clip0_168_2667">
<rect width="24" height="24" fill="white"/>
</clipPath>
</defs>
</svg>
