<svg width="24" height="24" viewBox="0 0 24 24" fill="none" xmlns="http://www.w3.org/2000/svg">
<g id="&#240;&#159;&#143;&#139;&#240;&#159;&#143;&#187;&#226;&#128;&#141;&#226;&#153;&#128;&#239;&#184;&#143; &#236;&#151;&#172;&#236;&#158;&#144; &#236;&#151;&#173;&#235;&#143;&#132; &#236;&#132;&#160;&#236;&#136;&#152;: &#237;&#149;&#152;&#236;&#150;&#128; &#237;&#148;&#188;&#235;&#182;&#128;" clip-path="url(#clip0_168_2642)">
<g id="Group">
<g id="Group_2">
<path id="Vector" d="M15.2936 3.75637C15.3062 3.54817 15.3572 3.35257 15.443 3.17377C13.2824 2.95537 11.111 2.95117 8.94922 3.16177C9.03682 3.33997 9.08962 3.53557 9.10402 3.74377C11.1644 3.54937 13.2338 3.55357 15.2936 3.75637Z" fill="#4E5968"/>
<path id="Vector_2" d="M23.2444 3.62397L22.8484 5.95797C22.7404 6.58197 22.1524 6.99597 21.5284 6.89397L20.4484 6.70797C19.8244 6.59997 19.4104 6.01197 19.5124 5.38797L19.6804 4.40997L18.3784 4.18797C18.4024 4.07997 18.4144 3.96597 18.4144 3.85197C18.4144 3.76197 18.4024 3.67197 18.3904 3.58797L19.7824 3.82197L19.9144 3.05397C20.0164 2.42997 20.6104 2.01597 21.2284 2.11797L22.3144 2.30397C22.9324 2.41197 23.3524 2.99997 23.2444 3.62397Z" fill="#4E5968"/>
<path id="Vector_3" d="M4.74015 5.38797C4.84815 6.01197 4.42815 6.59997 3.80415 6.70797L2.72415 6.89397C2.10015 6.99597 1.51215 6.58197 1.40415 5.95797L1.00815 3.62397C0.90015 2.99997 1.32015 2.41197 1.93815 2.30397L3.02415 2.11797C3.64215 2.01597 4.23615 2.42997 4.33815 3.05397L4.47015 3.82197L6.01215 3.56997C5.99415 3.65997 5.98215 3.74997 5.98215 3.85197C5.98215 3.95997 5.99415 4.06797 6.01815 4.16997L4.57215 4.40997L4.74015 5.38797Z" fill="#4E5968"/>
</g>
<path id="Vector_4" d="M14.0287 11.1216C13.9855 10.9542 13.9489 10.7874 13.9237 10.6284C13.9135 10.6374 13.9063 10.6488 13.8955 10.6578C12.8965 11.5092 11.4463 11.466 10.4887 10.623C10.4617 10.7994 10.4221 10.9854 10.3729 11.1726C10.1221 12.1308 9.54849 13.1166 8.23389 13.0314L8.31969 13.434L8.54529 14.493L9.24669 17.784L9.24849 17.793L10.3345 18.03C11.5663 18.2988 12.8413 18.2988 14.0731 18.0288L15.1585 17.7912L15.1645 17.7618L15.8611 14.493L16.1797 12.9966H16.1785C14.8489 13.0818 14.2765 12.0816 14.0287 11.1216Z" fill="#6453E4"/>
<g id="Group_3">
<path id="Vector_5" d="M10.4879 10.626C10.4639 10.8 10.4219 10.986 10.3739 11.172L10.1699 10.29C10.1879 10.314 10.1999 10.344 10.2179 10.362C10.3019 10.464 10.3979 10.542 10.4879 10.626Z" fill="#FFCCA8"/>
<path id="Vector_6" d="M14.2138 10.3203L14.0278 11.1243C13.9858 10.9563 13.9498 10.7883 13.9258 10.6263C14.0338 10.5363 14.1298 10.4283 14.2138 10.3203Z" fill="#FFCCA8"/>
<path id="Vector_7" d="M6.88608 14.4941C5.56968 14.4941 4.51608 15.5867 4.56408 16.9025L4.67148 19.8251L4.63188 18.7499L7.58388 18.6659V18.6671L7.57368 18.3905C7.55928 18.0041 7.88328 17.6903 8.26908 17.7173L9.24588 17.7851L8.54448 14.4941H6.88548H6.88608Z" fill="#FFCCA8"/>
<path id="Vector_8" d="M15.1647 17.7845L16.1469 17.7167C16.5327 17.6897 16.8567 18.0035 16.8423 18.3899L16.8285 18.7721L16.8339 18.6653L19.7847 18.7493L19.8525 16.9025C19.9011 15.5867 18.8475 14.4941 17.5305 14.4941H15.8607L15.1641 17.7629V17.7857L15.1647 17.7845Z" fill="#FFCCA8"/>
<path id="Vector_9" d="M8.23193 13.0321L8.32193 13.4341L6.19793 4.62613C6.11393 4.48813 6.04793 4.33213 6.01793 4.17013C5.99393 4.06813 5.98193 3.96013 5.98193 3.85213C5.98193 3.75013 5.99393 3.66013 6.01193 3.57013C6.14393 2.83813 6.77993 2.28613 7.54793 2.28613C8.16593 2.28613 8.69393 2.64613 8.94593 3.16213C9.03593 3.34213 9.08993 3.53413 9.10193 3.74413C9.10793 3.78013 9.11393 3.81013 9.11393 3.85213C9.11393 4.18813 8.99993 4.50613 8.81393 4.76413L9.65393 8.16013C9.64793 8.20213 9.62993 8.24413 9.62393 8.28613C9.30593 8.44213 9.08393 8.76013 9.08393 9.13813C9.08393 9.65413 9.50393 10.0801 10.0199 10.0801C10.0679 10.1521 10.1159 10.2241 10.1699 10.2901L10.3739 11.1721C10.1219 12.1321 9.54593 13.1161 8.23193 13.0321Z" fill="#FFCCA8"/>
<path id="Vector_10" d="M18.4138 3.85213C18.4138 3.96613 18.4018 4.08013 18.3778 4.18813C18.3418 4.35013 18.2758 4.49413 18.1978 4.63213L16.1758 12.9961C14.8498 13.0801 14.2738 12.0841 14.0278 11.1241L14.2138 10.3201C14.2798 10.2421 14.3338 10.1581 14.3878 10.0741C14.8858 10.0501 15.2818 9.64213 15.2818 9.13813C15.2818 8.77813 15.0778 8.46613 14.7778 8.31013V8.29813L14.7838 8.30413C14.7778 8.25013 14.7598 8.19613 14.7478 8.14213L15.5818 4.75813C15.3958 4.50613 15.2818 4.18813 15.2818 3.85213C15.2818 3.81613 15.2938 3.78613 15.2938 3.75613C15.3058 3.54613 15.3598 3.35413 15.4438 3.17413C15.6958 2.64613 16.2298 2.28613 16.8478 2.28613C17.6278 2.28613 18.2638 2.85013 18.3898 3.58813C18.4018 3.67213 18.4138 3.76213 18.4138 3.85213Z" fill="#FFCCA8"/>
</g>
<path id="Vector_11" d="M14.778 8.31013V8.29813L12.204 6.78613L9.68998 8.26213C9.66598 8.26813 9.64798 8.28013 9.62398 8.28613C9.30598 8.44213 9.08398 8.76013 9.08398 9.13813C9.08398 9.65413 9.50398 10.0801 10.02 10.0801C10.068 10.1521 10.116 10.2241 10.17 10.2901C10.188 10.3141 10.2 10.3441 10.218 10.3621C10.302 10.4641 10.398 10.5421 10.488 10.6261C11.448 11.4661 12.894 11.5081 13.896 10.6561C13.908 10.6501 13.914 10.6381 13.926 10.6261C14.034 10.5361 14.13 10.4281 14.214 10.3201C14.28 10.2421 14.334 10.1581 14.388 10.0741C14.886 10.0501 15.282 9.64213 15.282 9.13813C15.282 8.77813 15.078 8.46613 14.778 8.31013ZM11.766 8.74213C11.64 8.74213 11.538 8.58613 11.538 8.39413C11.538 8.19613 11.64 8.04613 11.766 8.04613C11.898 8.04613 12 8.19613 12 8.39413C12 8.58613 11.898 8.74213 11.766 8.74213ZM12.69 8.74213C12.564 8.74213 12.456 8.58613 12.456 8.39413C12.456 8.19613 12.564 8.04613 12.69 8.04613C12.816 8.04613 12.918 8.19613 12.918 8.39413C12.918 8.58613 12.816 8.74213 12.69 8.74213Z" fill="#FFA49B"/>
<g id="Group_4">
<path id="Vector_12" d="M4.632 18.7481L4.6716 19.8233L4.6872 20.2427L3.2688 21.1505C2.7846 21.4565 2.5062 22.0013 2.541 22.5731L2.5524 22.7585C2.5626 22.9241 2.7 23.0531 2.8656 23.0531H7.4484C7.6266 23.0531 7.7694 22.9049 7.7622 22.7261L7.6608 20.2403L7.584 18.6653V18.6641L4.632 18.7481Z" fill="#4E5968"/>
<path id="Vector_13" d="M16.8289 18.7715L16.7569 20.2409L16.6555 22.7267C16.6483 22.9049 16.7905 23.0537 16.9693 23.0537H21.5521C21.7177 23.0537 21.8551 22.9247 21.8653 22.7591L21.8767 22.5737C21.9121 22.0025 21.6331 21.4571 21.1489 21.1511L19.7305 20.2433L19.7851 18.7481H19.7839L16.8331 18.6641L16.8277 18.7709L16.8289 18.7715Z" fill="#4E5968"/>
</g>
<path id="Vector_14" d="M14.784 8.30365L14.778 8.29765L12.204 6.78565L9.69002 8.26165C9.66602 8.26765 9.64802 8.27965 9.62402 8.28565C9.63002 8.24365 9.64802 8.20165 9.65402 8.15965C9.66002 8.14765 9.66002 8.13565 9.66602 8.12365C9.67802 8.05165 9.69602 7.97965 9.71402 7.90765C9.74402 7.82365 9.77402 7.73965 9.81002 7.66165C9.84002 7.58965 9.87002 7.51765 9.90602 7.45165C9.94202 7.37965 9.99002 7.30765 10.038 7.23565C10.086 7.16965 10.122 7.10365 10.17 7.04365C10.248 6.94765 10.338 6.85765 10.428 6.77365C10.458 6.74965 10.482 6.71365 10.512 6.68965C10.566 6.64165 10.62 6.61165 10.674 6.57565C10.746 6.52165 10.818 6.46765 10.896 6.41965C10.968 6.37765 11.046 6.34765 11.118 6.31165C11.196 6.28165 11.268 6.24565 11.346 6.21565C11.418 6.19165 11.496 6.17365 11.574 6.15565C11.652 6.13165 11.736 6.11365 11.82 6.10165C11.898 6.08965 11.976 6.08365 12.048 6.07765H12.084C12.078 5.79565 12.144 5.21965 12.75 4.96165C13.476 4.65565 14.124 4.69765 14.52 4.17565C14.574 4.10365 14.688 4.12765 14.7 4.22365C14.724 4.62565 14.724 5.50765 14.028 5.63365C13.236 5.77165 12.714 5.95165 12.42 6.08365C12.462 6.08365 12.498 6.08965 12.54 6.09565C12.624 6.10765 12.708 6.11965 12.792 6.13765C12.87 6.15565 12.942 6.17965 13.02 6.20365C13.092 6.22765 13.164 6.25765 13.236 6.28765C13.314 6.32365 13.392 6.35965 13.47 6.40165C13.53 6.43765 13.59 6.47365 13.65 6.51565C13.722 6.56365 13.8 6.61765 13.872 6.67765C13.932 6.72565 13.98 6.77965 14.034 6.83365C14.064 6.85765 14.088 6.88165 14.112 6.91165C14.142 6.93565 14.166 6.95965 14.19 6.98365C14.196 6.99565 14.202 7.00765 14.214 7.01965C14.28 7.09765 14.334 7.18765 14.388 7.27165C14.454 7.37365 14.514 7.48165 14.568 7.59565C14.604 7.68565 14.646 7.76965 14.676 7.85965C14.706 7.93165 14.718 8.01565 14.736 8.09365C14.736 8.10565 14.742 8.12365 14.748 8.14165C14.76 8.19565 14.778 8.24965 14.784 8.30365Z" fill="#333333"/>
<g id="Group_5">
<path id="Vector_15" d="M11.7692 8.73897C11.897 8.73897 12.0002 8.58297 12.0002 8.39097C12.0002 8.19897 11.8964 8.04297 11.7692 8.04297C11.642 8.04297 11.5376 8.19897 11.5376 8.39097C11.5376 8.58297 11.6414 8.73897 11.7692 8.73897Z" fill="black"/>
<path id="Vector_16" d="M12.6896 8.73897C12.8174 8.73897 12.9206 8.58297 12.9206 8.39097C12.9206 8.19897 12.8168 8.04297 12.6896 8.04297C12.5624 8.04297 12.458 8.19897 12.458 8.39097C12.458 8.58297 12.5618 8.73897 12.6896 8.73897Z" fill="black"/>
</g>
</g>
</g>
<defs>
<clipPath id="clip0_168_2642">
<rect width="24" height="24" fill="white"/>
</clipPath>
</defs>
</svg>
