<svg width="24" height="24" viewBox="0 0 24 24" fill="none" xmlns="http://www.w3.org/2000/svg">
<g id="&#226;&#156;&#141;&#240;&#159;&#143;&#187; &#234;&#184;&#128;&#236;&#157;&#132; &#236;&#147;&#176;&#234;&#179;&#160; &#236;&#158;&#136;&#235;&#138;&#148; &#236;&#134;&#144;: &#237;&#149;&#152;&#236;&#150;&#128; &#237;&#148;&#188;&#235;&#182;&#128;" clip-path="url(#clip0_168_2690)">
<g id="Group">
<g id="Group_2">
<path id="Vector" d="M22.3392 13.7236C22.3392 11.6842 21.1788 9.82478 19.3452 8.93198C16.4454 7.52018 12.2436 5.47898 10.5318 4.67018C9.53158 4.19798 8.34598 4.41818 7.57858 5.21438L3.05578 9.90818C2.59258 10.3888 2.33398 11.0296 2.33398 11.6968V15.5566C2.33398 17.692 4.06498 19.4236 6.20098 19.4236L17.0172 19.405C19.9578 19.4002 22.3392 17.0146 22.3392 14.074V13.7236Z" fill="#FFCCA8"/>
<path id="Vector_2" d="M11.7139 12.7924V10.6318L7.85889 14.4868L11.7139 12.7924Z" fill="#E68E51"/>
</g>
<g id="Group_3">
<path id="Vector_3" d="M18.937 2.64026L17.944 1.64666C17.7172 1.41986 17.3494 1.41986 17.1226 1.64666L1.11464 17.6547C1.04144 17.7279 0.989237 17.8185 0.962237 17.9187L0.470837 19.7529C0.412037 19.9719 0.612437 20.1717 0.830837 20.1129L2.66504 19.6215C2.76464 19.5945 2.85584 19.5423 2.92904 19.4691L3.78224 18.6159C3.63284 18.4215 3.51404 18.1995 3.44324 17.9523C3.16844 16.9899 3.65204 15.9729 4.57244 15.5781L8.25824 14.1405L18.937 3.46166C19.1638 3.23486 19.1638 2.86706 18.937 2.64026Z" fill="#4B596A"/>
<path id="Vector_4" d="M3.44379 17.9522C3.51459 18.1994 3.63279 18.4214 3.78279 18.6158C4.17879 19.1306 4.81119 19.4366 5.49099 19.391L13.885 19.3412L12.9334 12.3164L8.25819 14.1404L4.57239 15.578C3.65199 15.9728 3.16959 16.9892 3.44379 17.9522Z" fill="#FFCCA8"/>
</g>
</g>
</g>
<defs>
<clipPath id="clip0_168_2690">
<rect width="24" height="24" fill="white"/>
</clipPath>
</defs>
</svg>
